<?xml version="1.0" encoding="UTF-8" standalone="no"?>
<svg
   xmlns:dc="http://purl.org/dc/elements/1.1/"
   xmlns:cc="http://creativecommons.org/ns#"
   xmlns:rdf="http://www.w3.org/1999/02/22-rdf-syntax-ns#"
   xmlns:svg="http://www.w3.org/2000/svg"
   xmlns="http://www.w3.org/2000/svg"
   xmlns:xlink="http://www.w3.org/1999/xlink"
   xmlns:sodipodi="http://sodipodi.sourceforge.net/DTD/sodipodi-0.dtd"
   xmlns:inkscape="http://www.inkscape.org/namespaces/inkscape"
   inkscape:export-ydpi="96.000008"
   inkscape:export-xdpi="96.000008"
   inkscape:export-filename="/home/rick/document-viewer/icon.png"
   sodipodi:docname="icon.svg"
   inkscape:version="1.0 (4035a4fb49, 2020-05-01)"
   id="svg8"
   version="1.1"
   viewBox="0 0 135.46666 135.46666"
   height="512"
   width="512">
  <defs
     id="defs2">
    <marker
       inkscape:isstock="true"
       style="overflow:visible;"
       id="Arrow1Send"
       refX="0.0"
       refY="0.0"
       orient="auto"
       inkscape:stockid="Arrow1Send">
      <path
         transform="scale(0.2) rotate(180) translate(6,0)"
         style="fill-rule:evenodd;stroke:#0000ff;stroke-width:1pt;stroke-opacity:1;fill:#0000ff;fill-opacity:1"
         d="M 0.0,0.0 L 5.0,-5.0 L -12.5,0.0 L 5.0,5.0 L 0.0,0.0 z "
         id="path1069" />
    </marker>
    <marker
       inkscape:isstock="true"
       style="overflow:visible"
       id="marker1380"
       refX="0.0"
       refY="0.0"
       orient="auto"
       inkscape:stockid="Arrow1Sstart">
      <path
         transform="scale(0.2) translate(6,0)"
         style="fill-rule:evenodd;stroke:#0000ff;stroke-width:1pt;stroke-opacity:1;fill:#0000ff;fill-opacity:1"
         d="M 0.0,0.0 L 5.0,-5.0 L -12.5,0.0 L 5.0,5.0 L 0.0,0.0 z "
         id="path1378" />
    </marker>
    <marker
       inkscape:isstock="true"
       style="overflow:visible"
       id="Arrow1Sstart"
       refX="0.0"
       refY="0.0"
       orient="auto"
       inkscape:stockid="Arrow1Sstart">
      <path
         transform="scale(0.2) translate(6,0)"
         style="fill-rule:evenodd;stroke:#000000;stroke-width:1pt;stroke-opacity:1;fill:#0000ff;fill-opacity:1"
         d="M 0.0,0.0 L 5.0,-5.0 L -12.5,0.0 L 5.0,5.0 L 0.0,0.0 z "
         id="path1066" />
    </marker>
    <marker
       inkscape:isstock="true"
       style="overflow:visible"
       id="Arrow1Mstart"
       refX="0.0"
       refY="0.0"
       orient="auto"
       inkscape:stockid="Arrow1Mstart">
      <path
         transform="scale(0.4) translate(10,0)"
         style="fill-rule:evenodd;stroke:#000000;stroke-width:1pt;stroke-opacity:1;fill:#000000;fill-opacity:1"
         d="M 0.0,0.0 L 5.0,-5.0 L -12.5,0.0 L 5.0,5.0 L 0.0,0.0 z "
         id="path1060" />
    </marker>
    <g
       id="g2955">
      <symbol
         id="symbol3167"
         overflow="visible">
        <path
           id="path5105"
           d=""
           style="stroke:none;" />
      </symbol>
      <symbol
         id="symbol4552"
         overflow="visible">
        <path
           id="path4494"
           d="M 5.796875 -2.578125 L 5.546875 -2.578125 C 5.4375 -1.5625 5.296875 -0.3125 3.546875 -0.3125 L 2.734375 -0.3125 C 2.265625 -0.3125 2.25 -0.375 2.25 -0.703125 L 2.25 -6.015625 C 2.25 -6.359375 2.25 -6.5 3.1875 -6.5 L 3.515625 -6.5 L 3.515625 -6.8125 C 3.15625 -6.78125 2.25 -6.78125 1.84375 -6.78125 C 1.453125 -6.78125 0.671875 -6.78125 0.328125 -6.8125 L 0.328125 -6.5 L 0.5625 -6.5 C 1.328125 -6.5 1.359375 -6.390625 1.359375 -6.03125 L 1.359375 -0.78125 C 1.359375 -0.421875 1.328125 -0.3125 0.5625 -0.3125 L 0.328125 -0.3125 L 0.328125 0 L 5.515625 0 Z M 5.796875 -2.578125 "
           style="stroke:none;" />
      </symbol>
      <symbol
         id="symbol8388"
         overflow="visible">
        <path
           id="path6376"
           d="M 6.640625 -6.75 L 0.546875 -6.75 L 0.359375 -4.5 L 0.609375 -4.5 C 0.75 -6.109375 0.890625 -6.4375 2.40625 -6.4375 C 2.578125 -6.4375 2.84375 -6.4375 2.9375 -6.421875 C 3.15625 -6.375 3.15625 -6.265625 3.15625 -6.046875 L 3.15625 -0.78125 C 3.15625 -0.453125 3.15625 -0.3125 2.109375 -0.3125 L 1.703125 -0.3125 L 1.703125 0 C 2.109375 -0.03125 3.125 -0.03125 3.59375 -0.03125 C 4.046875 -0.03125 5.078125 -0.03125 5.484375 0 L 5.484375 -0.3125 L 5.078125 -0.3125 C 4.03125 -0.3125 4.03125 -0.453125 4.03125 -0.78125 L 4.03125 -6.046875 C 4.03125 -6.234375 4.03125 -6.375 4.21875 -6.421875 C 4.328125 -6.4375 4.59375 -6.4375 4.78125 -6.4375 C 6.296875 -6.4375 6.4375 -6.109375 6.578125 -4.5 L 6.828125 -4.5 Z M 6.640625 -6.75 "
           style="stroke:none;" />
      </symbol>
      <symbol
         id="symbol35"
         overflow="visible">
        <path
           id="path3993"
           d="M 1.359375 -0.78125 C 1.359375 -0.421875 1.328125 -0.3125 0.5625 -0.3125 L 0.328125 -0.3125 L 0.328125 0 L 6.078125 0 L 6.5 -2.578125 L 6.25 -2.578125 C 6 -1.03125 5.765625 -0.3125 4.0625 -0.3125 L 2.734375 -0.3125 C 2.265625 -0.3125 2.25 -0.375 2.25 -0.703125 L 2.25 -3.375 L 3.140625 -3.375 C 4.109375 -3.375 4.21875 -3.046875 4.21875 -2.203125 L 4.46875 -2.203125 L 4.46875 -4.84375 L 4.21875 -4.84375 C 4.21875 -3.984375 4.109375 -3.671875 3.140625 -3.671875 L 2.25 -3.671875 L 2.25 -6.078125 C 2.25 -6.40625 2.265625 -6.46875 2.734375 -6.46875 L 4.015625 -6.46875 C 5.546875 -6.46875 5.8125 -5.921875 5.96875 -4.53125 L 6.21875 -4.53125 L 5.9375 -6.78125 L 0.328125 -6.78125 L 0.328125 -6.46875 L 0.5625 -6.46875 C 1.328125 -6.46875 1.359375 -6.359375 1.359375 -6 Z M 1.359375 -0.78125 "
           style="stroke:none;" />
      </symbol>
      <symbol
         id="symbol2656"
         overflow="visible">
        <path
           id="path9683"
           d="M 4 -3.84375 L 5.375 -5.859375 C 5.59375 -6.171875 5.9375 -6.484375 6.8125 -6.5 L 6.8125 -6.8125 C 6.4375 -6.796875 5.96875 -6.78125 5.71875 -6.78125 C 5.3125 -6.78125 4.828125 -6.78125 4.4375 -6.8125 L 4.4375 -6.5 C 4.828125 -6.484375 5.046875 -6.265625 5.046875 -6.046875 C 5.046875 -5.9375 5.03125 -5.921875 4.96875 -5.8125 L 3.828125 -4.125 L 2.546875 -6.046875 C 2.515625 -6.078125 2.46875 -6.15625 2.46875 -6.203125 C 2.46875 -6.3125 2.6875 -6.484375 3.125 -6.5 L 3.125 -6.8125 C 2.765625 -6.78125 2.046875 -6.78125 1.671875 -6.78125 C 1.359375 -6.78125 0.734375 -6.78125 0.375 -6.8125 L 0.375 -6.5 L 0.5625 -6.5 C 1.109375 -6.5 1.296875 -6.4375 1.484375 -6.15625 L 3.3125 -3.375 L 1.6875 -0.96875 C 1.546875 -0.765625 1.25 -0.3125 0.234375 -0.3125 L 0.234375 0 C 0.59375 -0.015625 1.015625 -0.03125 1.34375 -0.03125 C 1.71875 -0.03125 2.265625 -0.03125 2.625 0 L 2.625 -0.3125 C 2.15625 -0.3125 2 -0.59375 2 -0.765625 C 2 -0.859375 2.03125 -0.890625 2.09375 -1 L 3.515625 -3.09375 L 5.078125 -0.71875 C 5.109375 -0.671875 5.140625 -0.640625 5.140625 -0.609375 C 5.140625 -0.484375 4.921875 -0.3125 4.484375 -0.3125 L 4.484375 0 C 4.828125 -0.03125 5.5625 -0.03125 5.9375 -0.03125 C 6.359375 -0.03125 6.8125 -0.015625 7.234375 0 L 7.234375 -0.3125 L 7.046875 -0.3125 C 6.53125 -0.3125 6.3125 -0.359375 6.109375 -0.671875 Z M 4 -3.84375 "
           style="stroke:none;" />
      </symbol>
      <symbol
         id="symbol2393"
         overflow="visible">
        <path
           id="path4408"
           d=""
           style="stroke:none;" />
      </symbol>
      <symbol
         id="symbol3954"
         overflow="visible">
        <path
           id="path9535"
           d="M 3.125 -4.8125 C 3.09375 -4.921875 3.0625 -4.96875 2.9375 -4.96875 C 2.796875 -4.96875 2.78125 -4.921875 2.734375 -4.8125 L 1.125 -0.734375 C 1.0625 -0.5625 0.9375 -0.25 0.3125 -0.25 L 0.3125 0 C 0.546875 -0.015625 0.796875 -0.03125 1.03125 -0.03125 C 1.3125 -0.03125 1.828125 0 1.875 0 L 1.875 -0.25 C 1.5625 -0.25 1.359375 -0.390625 1.359375 -0.578125 C 1.359375 -0.640625 1.375 -0.65625 1.40625 -0.71875 L 1.734375 -1.578125 L 3.71875 -1.578125 L 4.125 -0.5625 C 4.125 -0.53125 4.15625 -0.484375 4.15625 -0.453125 C 4.15625 -0.25 3.78125 -0.25 3.59375 -0.25 L 3.59375 0 C 3.9375 -0.015625 4.390625 -0.03125 4.625 -0.03125 C 4.953125 -0.03125 5.484375 0 5.546875 0 L 5.546875 -0.25 L 5.421875 -0.25 C 4.953125 -0.25 4.90625 -0.328125 4.828125 -0.515625 Z M 2.71875 -4.09375 L 3.609375 -1.828125 L 1.828125 -1.828125 Z M 2.71875 -4.09375 "
           style="stroke:none;" />
      </symbol>
    </g>
    <g
       id="g5761">
      <symbol
         id="symbol2782"
         overflow="visible">
        <path
           id="path8885"
           d=""
           style="stroke:none;" />
      </symbol>
      <symbol
         id="symbol7561"
         overflow="visible">
        <path
           id="path2441"
           d="M 6.640625 -6.75 L 0.546875 -6.75 L 0.359375 -4.5 L 0.609375 -4.5 C 0.75 -6.109375 0.890625 -6.4375 2.40625 -6.4375 C 2.578125 -6.4375 2.84375 -6.4375 2.9375 -6.421875 C 3.15625 -6.375 3.15625 -6.265625 3.15625 -6.046875 L 3.15625 -0.78125 C 3.15625 -0.453125 3.15625 -0.3125 2.109375 -0.3125 L 1.703125 -0.3125 L 1.703125 0 C 2.109375 -0.03125 3.125 -0.03125 3.59375 -0.03125 C 4.046875 -0.03125 5.078125 -0.03125 5.484375 0 L 5.484375 -0.3125 L 5.078125 -0.3125 C 4.03125 -0.3125 4.03125 -0.453125 4.03125 -0.78125 L 4.03125 -6.046875 C 4.03125 -6.234375 4.03125 -6.375 4.21875 -6.421875 C 4.328125 -6.4375 4.59375 -6.4375 4.78125 -6.4375 C 6.296875 -6.4375 6.4375 -6.109375 6.578125 -4.5 L 6.828125 -4.5 Z M 6.640625 -6.75 "
           style="stroke:none;" />
      </symbol>
      <symbol
         id="symbol7235"
         overflow="visible">
        <path
           id="path2918"
           d="M 1.359375 -0.78125 C 1.359375 -0.421875 1.328125 -0.3125 0.5625 -0.3125 L 0.328125 -0.3125 L 0.328125 0 L 6.078125 0 L 6.5 -2.578125 L 6.25 -2.578125 C 6 -1.03125 5.765625 -0.3125 4.0625 -0.3125 L 2.734375 -0.3125 C 2.265625 -0.3125 2.25 -0.375 2.25 -0.703125 L 2.25 -3.375 L 3.140625 -3.375 C 4.109375 -3.375 4.21875 -3.046875 4.21875 -2.203125 L 4.46875 -2.203125 L 4.46875 -4.84375 L 4.21875 -4.84375 C 4.21875 -3.984375 4.109375 -3.671875 3.140625 -3.671875 L 2.25 -3.671875 L 2.25 -6.078125 C 2.25 -6.40625 2.265625 -6.46875 2.734375 -6.46875 L 4.015625 -6.46875 C 5.546875 -6.46875 5.8125 -5.921875 5.96875 -4.53125 L 6.21875 -4.53125 L 5.9375 -6.78125 L 0.328125 -6.78125 L 0.328125 -6.46875 L 0.5625 -6.46875 C 1.328125 -6.46875 1.359375 -6.359375 1.359375 -6 Z M 1.359375 -0.78125 "
           style="stroke:none;" />
      </symbol>
      <symbol
         id="symbol8665"
         overflow="visible">
        <path
           id="path987"
           d="M 4 -3.84375 L 5.375 -5.859375 C 5.59375 -6.171875 5.9375 -6.484375 6.8125 -6.5 L 6.8125 -6.8125 C 6.4375 -6.796875 5.96875 -6.78125 5.71875 -6.78125 C 5.3125 -6.78125 4.828125 -6.78125 4.4375 -6.8125 L 4.4375 -6.5 C 4.828125 -6.484375 5.046875 -6.265625 5.046875 -6.046875 C 5.046875 -5.9375 5.03125 -5.921875 4.96875 -5.8125 L 3.828125 -4.125 L 2.546875 -6.046875 C 2.515625 -6.078125 2.46875 -6.15625 2.46875 -6.203125 C 2.46875 -6.3125 2.6875 -6.484375 3.125 -6.5 L 3.125 -6.8125 C 2.765625 -6.78125 2.046875 -6.78125 1.671875 -6.78125 C 1.359375 -6.78125 0.734375 -6.78125 0.375 -6.8125 L 0.375 -6.5 L 0.5625 -6.5 C 1.109375 -6.5 1.296875 -6.4375 1.484375 -6.15625 L 3.3125 -3.375 L 1.6875 -0.96875 C 1.546875 -0.765625 1.25 -0.3125 0.234375 -0.3125 L 0.234375 0 C 0.59375 -0.015625 1.015625 -0.03125 1.34375 -0.03125 C 1.71875 -0.03125 2.265625 -0.03125 2.625 0 L 2.625 -0.3125 C 2.15625 -0.3125 2 -0.59375 2 -0.765625 C 2 -0.859375 2.03125 -0.890625 2.09375 -1 L 3.515625 -3.09375 L 5.078125 -0.71875 C 5.109375 -0.671875 5.140625 -0.640625 5.140625 -0.609375 C 5.140625 -0.484375 4.921875 -0.3125 4.484375 -0.3125 L 4.484375 0 C 4.828125 -0.03125 5.5625 -0.03125 5.9375 -0.03125 C 6.359375 -0.03125 6.8125 -0.015625 7.234375 0 L 7.234375 -0.3125 L 7.046875 -0.3125 C 6.53125 -0.3125 6.3125 -0.359375 6.109375 -0.671875 Z M 4 -3.84375 "
           style="stroke:none;" />
      </symbol>
    </g>
    <filter
       id="filter1038"
       inkscape:label="Drop Shadow"
       style="color-interpolation-filters:sRGB;">
      <feFlood
         id="feFlood1028"
         result="flood"
         flood-color="rgb(0,0,0)"
         flood-opacity="1" />
      <feComposite
         id="feComposite1030"
         result="composite1"
         operator="in"
         in2="SourceGraphic"
         in="flood" />
      <feGaussianBlur
         id="feGaussianBlur1032"
         result="blur"
         stdDeviation="3"
         in="composite1" />
      <feOffset
         id="feOffset1034"
         result="offset"
         dy="0"
         dx="0" />
      <feComposite
         id="feComposite1036"
         result="composite2"
         operator="over"
         in2="offset"
         in="SourceGraphic" />
    </filter>
    <filter
       id="filter1050"
       inkscape:label="Drop Shadow"
       style="color-interpolation-filters:sRGB;">
      <feFlood
         id="feFlood1040"
         result="flood"
         flood-color="rgb(255,255,255)"
         flood-opacity="1" />
      <feComposite
         id="feComposite1042"
         result="composite1"
         operator="in"
         in2="SourceGraphic"
         in="flood" />
      <feGaussianBlur
         id="feGaussianBlur1044"
         result="blur"
         stdDeviation="3"
         in="composite1" />
      <feOffset
         id="feOffset1046"
         result="offset"
         dy="0"
         dx="0" />
      <feComposite
         id="feComposite1048"
         result="composite2"
         operator="over"
         in2="offset"
         in="SourceGraphic" />
    </filter>
  </defs>
  <sodipodi:namedview
     inkscape:window-maximized="1"
     inkscape:window-y="27"
     inkscape:window-x="0"
     inkscape:window-height="705"
     inkscape:window-width="1366"
     units="px"
     showgrid="false"
     inkscape:document-rotation="0"
     inkscape:current-layer="layer1"
     inkscape:document-units="mm"
     inkscape:cy="220.87738"
     inkscape:cx="233.1585"
     inkscape:zoom="0.64"
     inkscape:pageshadow="2"
     inkscape:pageopacity="0.0"
     borderopacity="1.0"
     bordercolor="#666666"
     pagecolor="#ffffff"
     id="base" />
  <metadata
     id="metadata5">
    <rdf:RDF>
      <cc:Work
         rdf:about="">
        <dc:format>image/svg+xml</dc:format>
        <dc:type
           rdf:resource="http://purl.org/dc/dcmitype/StillImage" />
        <dc:title></dc:title>
      </cc:Work>
    </rdf:RDF>
  </metadata>
  <g
     id="layer1"
     inkscape:groupmode="layer"
     inkscape:label="Layer 1">
    <rect
       ry="5.6928477"
       y="83.301422"
       x="13.905702"
       height="40.599297"
       width="70.873016"
       id="rect897"
       style="fill:#000000;fill-rule:evenodd;stroke-width:0.264583;filter:url(#filter1050)" />
    <text
       id="text895"
       y="112.41091"
       x="18.273193"
       style="font-style:normal;font-variant:normal;font-weight:normal;font-stretch:normal;font-size:24.2168px;line-height:1.25;font-family:mon;-inkscape-font-specification:mon;letter-spacing:0px;word-spacing:0px;stroke-width:0.264583"
       xml:space="preserve"><tspan
         style="font-style:normal;font-variant:normal;font-weight:normal;font-stretch:normal;font-family:monospace;-inkscape-font-specification:monospace;stroke-width:0.264583"
         y="112.41091"
         x="18.273193"
         id="tspan893"
         sodipodi:role="line"><tspan
           id="tspan901"
           style="font-style:normal;font-variant:normal;font-weight:normal;font-stretch:normal;font-family:monospace;-inkscape-font-specification:monospace;fill:#ffff00;stroke-width:0.264583">\TeX</tspan></tspan></text>
    <rect
       style="fill:#ffffff;fill-rule:evenodd;stroke-width:0.264583;filter:url(#filter1038)"
       id="rect962"
       width="72.240822"
       height="52.180996"
       x="46.787907"
       y="14.568651"
       ry="7.3168378" />
    <g
       style="stroke-width:0.28551"
       inkscape:label=""
       transform="matrix(3.5025034,0,0,3.5025034,-270.75966,-237.3242)"
       id="g941">
      <g
         style="stroke-width:0.28551"
         id="g9921">
        <g
           id="g7919"
           style="fill:#000000;fill-opacity:1;stroke-width:0.28551">
          <use
             style="stroke-width:0.28551"
             height="100%"
             width="100%"
             id="use6264"
             y="81.962997"
             x="91.925003"
             xlink:href="#symbol7561" />
        </g>
        <g
           id="g7226"
           style="fill:#000000;fill-opacity:1;stroke-width:0.28551">
          <use
             style="stroke-width:0.28551"
             height="100%"
             width="100%"
             id="use175"
             y="84.108002"
             x="97.459999"
             xlink:href="#symbol7235" />
        </g>
        <g
           id="g7722"
           style="fill:#000000;fill-opacity:1;stroke-width:0.28551">
          <use
             style="stroke-width:0.28551"
             height="100%"
             width="100%"
             id="use8261"
             y="81.962997"
             x="102.995"
             xlink:href="#symbol8665" />
        </g>
      </g>
    </g>
    <path
       sodipodi:nodetypes="cac"
       id="path1364"
       d="m 26.883248,80.291543 c 0,0 2.413055,-12.789281 5.589014,-18.332369 3.455029,-6.030155 14.130402,-15.330743 14.130402,-15.330743"
       style="fill:none;stroke:#0000ff;stroke-width:5;stroke-linecap:butt;stroke-linejoin:miter;stroke-miterlimit:4;stroke-dasharray:none;stroke-opacity:1;marker-start:url(#marker1380);marker-end:url(#Arrow1Send)" />
  </g>
</svg>
